<svg width="501" height="109" viewBox="0 0 501 109" fill="none" xmlns="http://www.w3.org/2000/svg">
<g clip-path="url(#clip0_138_109)">
<path d="M62.1116 0.129395H0.547852V44.4882H62.1116V0.129395Z" fill="#2C4390"/>
<path d="M0.688938 0.280751H61.9916V44.3588H0.688938V0.280751ZM0.427734 0V44.6179H62.2527V0H0.427734Z" fill="white"/>
<path d="M31.9928 6.54326H34.1225L32.4148 7.96861L33.0777 10.2578L31.3699 8.85406L29.662 10.2578L30.3251 7.96861L28.5972 6.54326H30.7269L31.3699 4.31885L31.9928 6.54326Z" fill="#FFED00"/>
<path d="M32.0733 35.9359H34.2031L32.4953 37.3181L33.1584 39.5208L31.4505 38.1603L29.7425 39.5208L30.4057 37.3181L28.6777 35.9359H30.8075L31.4505 33.7979L32.0733 35.9359Z" fill="#FFED00"/>
<path d="M38.8444 33.992H40.9742L39.2664 35.3742L39.9294 37.577L38.2216 36.2164L36.4935 37.577L37.1768 35.3742L35.4287 33.992H37.5786L38.2216 31.854L38.8444 33.992Z" fill="#FFED00"/>
<path d="M38.8444 8.50924H40.9742L39.2664 9.89139L39.9294 12.0726L38.2216 10.7337L36.4935 12.0726L37.1768 9.89139L35.4287 8.50924H37.5786L38.2216 6.34961L38.8444 8.50924Z" fill="#FFED00"/>
<path d="M43.8679 13.9077H45.9978L44.2899 15.2682L44.953 17.4711L43.2249 16.1321L41.5171 17.4711L42.2002 15.2682L40.4521 13.9077H42.5821L43.2249 11.748L43.8679 13.9077Z" fill="#FFED00"/>
<path d="M43.8679 28.658H45.9978L44.2899 30.0617L44.953 32.243L43.2249 30.9039L41.5171 32.243L42.2002 30.0617L40.4521 28.658H42.5821L43.2249 26.52L43.8679 28.658Z" fill="#FFED00"/>
<path d="M45.7566 21.1649H47.8865L46.1584 22.5471L46.8215 24.7498L45.1137 23.3893L43.4058 24.7498L44.0889 22.5471L42.3408 21.1649H44.4708L45.1137 19.0269L45.7566 21.1649Z" fill="#FFED00"/>
<path d="M25.1013 8.53022H27.2311L25.5232 9.91239L26.1863 12.0936L24.4785 10.7546L22.7504 12.0936L23.4336 9.91239L21.7056 8.53022H23.8355L24.4785 6.37061L25.1013 8.53022Z" fill="#FFED00"/>
<path d="M20.219 13.9081H22.3689L20.641 15.2902L21.3039 17.4931L19.5961 16.1541L17.8882 17.4931L18.5513 15.2902L16.8232 13.9081H18.9532L19.5961 11.77L20.219 13.9081Z" fill="#FFED00"/>
<path d="M18.4103 21.1864H20.5402L18.8122 22.5686L19.4954 24.7713L17.7875 23.4108L16.0595 24.7713L16.7426 22.5686L14.9946 21.1864H17.1245L17.7875 19.0483L18.4103 21.1864Z" fill="#FFED00"/>
<path d="M20.219 28.68H22.3689L20.641 30.0622L21.3039 32.2651L19.5961 30.9044L17.8882 32.2651L18.5513 30.0622L16.8232 28.68H18.9532L19.5961 26.542L20.219 28.68Z" fill="#FFED00"/>
<path d="M25.1818 34.0137H27.3116L25.5837 35.3957L26.2467 37.577L24.5389 36.2381L22.8309 37.577L23.494 35.3957L21.7661 34.0137H23.8959L24.5389 31.854L25.1818 34.0137Z" fill="#FFED00"/>
<path d="M70.7319 18.6373V7.86084H77.6035V9.69653H72.7612V12.2449H76.9406V14.059H72.7612V18.6373H70.7319Z" fill="white"/>
<path d="M84.0326 18.6375V17.4712C83.7714 17.8815 83.4299 18.2056 82.9878 18.4647C82.5458 18.7023 82.1037 18.8317 81.6215 18.8317C81.1392 18.8317 80.6973 18.7239 80.3155 18.4862C79.9338 18.2487 79.6524 17.9248 79.4715 17.5145C79.2908 17.1042 79.2104 16.521 79.2104 15.7867V10.8628H81.1392V14.4478C81.1392 15.5492 81.1795 16.2187 81.2397 16.4562C81.3201 16.6937 81.4407 16.9098 81.6215 17.0393C81.8023 17.1906 82.0434 17.2553 82.3248 17.2553C82.6463 17.2553 82.9477 17.1689 83.2088 16.9745C83.47 16.7801 83.6509 16.5426 83.7313 16.2619C83.8318 15.9811 83.8719 15.2684 83.8719 14.167V10.8844H85.8008V18.6806H84.0125L84.0326 18.6375Z" fill="white"/>
<path d="M94.4011 18.6375H92.4722V14.6638C92.4722 13.8215 92.4321 13.2816 92.3517 13.0225C92.2713 12.7849 92.1307 12.5905 91.9498 12.4393C91.769 12.3098 91.548 12.2234 91.2867 12.2234C90.9453 12.2234 90.6639 12.3098 90.3827 12.5257C90.1214 12.7201 89.9406 12.9793 89.84 13.3032C89.7397 13.6271 89.6994 14.2318 89.6994 15.0957V18.6375H87.7705V10.8412H89.5588V11.9858C90.2018 11.1004 90.9854 10.6685 91.9498 10.6685C92.3718 10.6685 92.7536 10.7548 93.1152 10.906C93.4769 11.0788 93.738 11.2731 93.9189 11.5323C94.0998 11.7915 94.2202 12.0722 94.3006 12.3962C94.381 12.7201 94.4011 13.1736 94.4011 13.7783V18.6158V18.6375Z" fill="white"/>
<path d="M103 18.6373H101.212V17.4928C100.911 17.9462 100.569 18.2703 100.167 18.4862C99.7654 18.7022 99.3636 18.8101 98.9417 18.8101C98.1179 18.8101 97.3945 18.4431 96.7917 17.7303C96.1889 17.0176 95.9077 16.0026 95.9077 14.7069C95.9077 13.4111 96.1889 12.3745 96.7717 11.705C97.3543 11.0139 98.0776 10.6684 98.9617 10.6684C99.7654 10.6684 100.469 11.0355 101.071 11.7482V7.86084H103V18.6373ZM97.8767 14.5773C97.8767 15.4195 97.9773 16.0026 98.1982 16.3914C98.4996 16.9312 98.9416 17.1904 99.5042 17.1904C99.9463 17.1904 100.328 16.9961 100.629 16.5857C100.931 16.1754 101.092 15.5707 101.092 14.7717C101.092 13.8862 100.951 13.2383 100.65 12.8496C100.348 12.4609 99.9664 12.2665 99.5042 12.2665C99.0421 12.2665 98.6603 12.4609 98.359 12.8496C98.0576 13.2383 97.8969 13.8214 97.8969 14.5989" fill="white"/>
<path d="M109.089 16.154L110.997 16.4996C110.756 17.2554 110.354 17.817 109.832 18.2273C109.31 18.616 108.626 18.8104 107.843 18.8104C106.577 18.8104 105.653 18.3784 105.05 17.4715C104.568 16.7587 104.327 15.8733 104.327 14.7935C104.327 13.4977 104.648 12.4827 105.271 11.7484C105.894 11.0141 106.698 10.647 107.662 10.647C108.747 10.647 109.591 11.0357 110.214 11.7916C110.837 12.5474 111.138 13.7353 111.118 15.3118H106.316C106.316 15.9165 106.477 16.3915 106.778 16.7371C107.079 17.0826 107.441 17.2554 107.883 17.2554C108.184 17.2554 108.446 17.169 108.646 16.9963C108.847 16.8235 109.008 16.5427 109.109 16.154M109.229 14.0592C109.229 13.4545 109.068 13.001 108.807 12.6986C108.526 12.3963 108.204 12.2235 107.803 12.2235C107.381 12.2235 107.039 12.3963 106.758 12.7202C106.477 13.0442 106.356 13.4977 106.356 14.0592H109.229Z" fill="white"/>
<path d="M119.335 18.6373H117.547V17.4928C117.246 17.9462 116.904 18.2703 116.502 18.4862C116.1 18.7022 115.699 18.8101 115.277 18.8101C114.453 18.8101 113.729 18.4431 113.127 17.7303C112.524 17.0176 112.243 16.0026 112.243 14.7069C112.243 13.4111 112.524 12.3745 113.107 11.705C113.689 11.0139 114.413 10.6684 115.297 10.6684C116.101 10.6684 116.804 11.0355 117.406 11.7482V7.86084H119.335V18.6373ZM114.212 14.5773C114.212 15.4195 114.312 16.0026 114.533 16.3914C114.835 16.9312 115.277 17.1904 115.839 17.1904C116.281 17.1904 116.663 16.9961 116.964 16.5857C117.266 16.1754 117.427 15.5707 117.427 14.7717C117.427 13.8862 117.266 13.2383 116.964 12.8496C116.663 12.4609 116.281 12.2665 115.819 12.2665C115.357 12.2665 114.975 12.4609 114.674 12.8496C114.372 13.2383 114.212 13.8214 114.212 14.5989" fill="white"/>
<path d="M125.022 18.6373V7.86084H126.951V11.7482C127.533 11.0355 128.237 10.6684 129.061 10.6684C129.945 10.6684 130.668 11.0139 131.251 11.705C131.833 12.3961 132.115 13.3679 132.115 14.6637C132.115 15.9594 131.813 17.0176 131.231 17.7303C130.648 18.4431 129.925 18.8101 129.081 18.8101C128.659 18.8101 128.257 18.7022 127.855 18.4862C127.453 18.2703 127.111 17.9247 126.81 17.4928V18.6373H125.022ZM126.931 14.5773C126.931 15.3763 127.051 15.981 127.292 16.3698C127.634 16.9097 128.056 17.1904 128.618 17.1904C129.04 17.1904 129.402 16.9961 129.704 16.6073C130.005 16.2186 130.145 15.6139 130.145 14.7717C130.145 13.8862 130.005 13.2383 129.704 12.8496C129.402 12.4609 129.02 12.2665 128.558 12.2665C128.096 12.2665 127.714 12.4609 127.413 12.8496C127.111 13.2383 126.951 13.8214 126.951 14.5989" fill="white"/>
<path d="M132.758 10.8419H134.807L136.535 16.3706L138.223 10.8419H140.212L137.661 18.3575L137.198 19.718C137.038 20.1716 136.877 20.517 136.716 20.7546C136.555 20.9922 136.395 21.1866 136.194 21.3377C135.993 21.4888 135.752 21.5969 135.47 21.6833C135.189 21.7696 134.847 21.8128 134.486 21.8128C134.124 21.8128 133.762 21.7696 133.401 21.6833L133.24 20.0635C133.541 20.1283 133.803 20.1499 134.044 20.1499C134.486 20.1499 134.827 19.9988 135.028 19.718C135.249 19.4372 135.41 19.07 135.511 18.6381L132.758 10.8203V10.8419Z" fill="white"/>
<path d="M74.0473 28.8742V30.5156H72.7412V33.6686C72.7412 34.2949 72.7412 34.6836 72.7815 34.77C72.8014 34.878 72.8618 34.9644 72.9422 35.0292C73.0226 35.0939 73.1431 35.1372 73.2637 35.1372C73.4444 35.1372 73.7057 35.0723 74.0272 34.9428L74.1879 36.5408C73.7458 36.7569 73.2436 36.8433 72.6608 36.8433C72.3192 36.8433 71.9977 36.7785 71.7165 36.6489C71.4351 36.5194 71.2343 36.3681 71.1138 36.1738C70.9931 35.9794 70.8926 35.6986 70.8525 35.3747C70.8123 35.1372 70.7923 34.662 70.7923 33.9278V30.5156H69.9082V28.8742H70.7923V27.3193L72.7211 26.1099V28.8526H74.0272L74.0473 28.8742Z" fill="white"/>
<path d="M77.2818 25.9155V29.8677C77.9046 29.0902 78.6481 28.7014 79.512 28.7014C79.954 28.7014 80.356 28.7878 80.6976 28.9605C81.0594 29.1333 81.3205 29.371 81.5014 29.63C81.6822 29.9108 81.8026 30.2132 81.863 30.5371C81.9232 30.861 81.9635 31.3794 81.9635 32.0921V36.6704H80.0344V32.5455C80.0344 31.7249 79.9944 31.2066 79.9141 30.9907C79.8337 30.7746 79.7132 30.6019 79.5323 30.4724C79.3515 30.3427 79.1103 30.278 78.8491 30.278C78.5274 30.278 78.2462 30.3644 77.985 30.5155C77.7439 30.6883 77.5432 30.9258 77.4427 31.2713C77.3222 31.6169 77.2618 32.1136 77.2618 32.7615V36.6704H75.333V25.9155H77.2618H77.2818Z" fill="white"/>
<path d="M88.1115 34.2083L90.0203 34.5538C89.7792 35.3097 89.3773 35.8711 88.855 36.2814C88.3325 36.6702 87.6494 36.8646 86.8658 36.8646C85.6 36.8646 84.6757 36.4327 84.073 35.5256C83.5907 34.813 83.3496 33.9275 83.3496 32.8476C83.3496 31.5519 83.6711 30.5368 84.2939 29.8026C84.9168 29.0684 85.7205 28.7012 86.685 28.7012C87.7699 28.7012 88.6139 29.0898 89.2367 29.8458C89.8596 30.6017 90.1609 31.7895 90.141 33.3659H85.3388C85.3388 33.9706 85.4995 34.4458 85.8009 34.7913C86.1022 35.1369 86.464 35.3097 86.9059 35.3097C87.2073 35.3097 87.4686 35.2233 87.6696 35.0505C87.8704 34.8777 88.0312 34.5969 88.1317 34.2083M88.2521 32.1134C88.2521 31.5087 88.0914 31.0551 87.8303 30.7528C87.5489 30.4504 87.2274 30.2776 86.8256 30.2776C86.4036 30.2776 86.0621 30.4504 85.7807 30.7745C85.4995 31.0984 85.3789 31.5519 85.3789 32.1134H88.2521Z" fill="white"/>
<path d="M95.6064 36.692V25.9155H103.021V27.7296H97.6157V30.1268H102.659V31.9408H97.6157V34.8779H103.222V36.692H95.6064Z" fill="white"/>
<path d="M109.691 36.6921V35.526C109.43 35.9363 109.089 36.2602 108.646 36.5193C108.204 36.7569 107.762 36.8865 107.28 36.8865C106.798 36.8865 106.356 36.7785 105.974 36.541C105.592 36.3034 105.311 35.9795 105.13 35.5691C104.95 35.1588 104.869 34.5757 104.869 33.8414V28.9175H106.798V32.5024C106.798 33.6038 106.838 34.2733 106.898 34.511C106.979 34.7485 107.099 34.9644 107.28 35.094C107.461 35.2452 107.702 35.3099 107.984 35.3099C108.305 35.3099 108.606 35.2235 108.867 35.0293C109.129 34.8349 109.31 34.5974 109.39 34.3166C109.49 34.0358 109.531 33.3232 109.531 32.2216V28.9391H111.459V36.7354H109.671L109.691 36.6921Z" fill="white"/>
<path d="M115.297 36.6919H113.368V28.8956H115.156V29.997C115.458 29.4787 115.739 29.1331 115.98 28.9603C116.221 28.7876 116.503 28.7012 116.804 28.7012C117.246 28.7012 117.668 28.8307 118.07 29.0898L117.467 30.8823C117.146 30.6448 116.844 30.5368 116.563 30.5368C116.282 30.5368 116.061 30.6232 115.88 30.7745C115.699 30.9256 115.538 31.2279 115.438 31.6383C115.337 32.0486 115.277 32.934 115.277 34.2514V36.6702L115.297 36.6919Z" fill="white"/>
<path d="M118.472 32.6748C118.472 31.9837 118.632 31.3357 118.934 30.6879C119.255 30.0399 119.697 29.5649 120.28 29.2193C120.863 28.8738 121.506 28.7227 122.209 28.7227C123.314 28.7227 124.198 29.1113 124.901 29.8672C125.605 30.6446 125.946 31.5949 125.946 32.7827C125.946 33.9704 125.585 34.9423 124.881 35.7198C124.178 36.4973 123.274 36.8859 122.209 36.8859C121.546 36.8859 120.903 36.7348 120.3 36.4109C119.697 36.087 119.235 35.6118 118.934 34.9856C118.612 34.3593 118.472 33.6034 118.472 32.6963M120.441 32.8043C120.441 33.5818 120.602 34.1648 120.943 34.5751C121.285 34.9856 121.707 35.2015 122.209 35.2015C122.711 35.2015 123.133 34.9856 123.475 34.5751C123.816 34.1648 123.977 33.5601 123.977 32.7827C123.977 32.0052 123.816 31.4438 123.475 31.0118C123.133 30.6015 122.711 30.3855 122.209 30.3855C121.707 30.3855 121.285 30.6015 120.943 31.0118C120.602 31.4221 120.441 32.0052 120.441 32.7827" fill="white"/>
<path d="M127.393 28.8739H129.181V30.0186C129.402 29.6298 129.724 29.3059 130.126 29.0684C130.527 28.8307 130.97 28.7012 131.452 28.7012C132.296 28.7012 133.019 29.0684 133.602 29.7594C134.184 30.472 134.486 31.4655 134.486 32.7181C134.486 33.9706 134.184 35.0289 133.602 35.7631C133.019 36.4758 132.296 36.843 131.452 36.843C131.05 36.843 130.688 36.7566 130.367 36.5838C130.045 36.4111 129.704 36.1303 129.342 35.6983V39.6288H127.413V28.8739H127.393ZM129.282 32.6317C129.282 33.5172 129.442 34.1434 129.764 34.5753C130.085 34.9856 130.487 35.2016 130.949 35.2016C131.412 35.2016 131.773 35.0072 132.054 34.6186C132.356 34.2298 132.497 33.6036 132.497 32.7181C132.497 31.8975 132.336 31.2928 132.034 30.9039C131.733 30.5153 131.351 30.2992 130.909 30.2992C130.467 30.2992 130.045 30.4937 129.744 30.8823C129.442 31.2711 129.282 31.8542 129.282 32.61" fill="white"/>
<path d="M140.212 34.2083L142.121 34.5538C141.88 35.3097 141.478 35.8711 140.956 36.2814C140.433 36.6702 139.75 36.8646 138.966 36.8646C137.701 36.8646 136.776 36.4327 136.174 35.5256C135.691 34.813 135.45 33.9275 135.45 32.8476C135.45 31.5519 135.772 30.5368 136.395 29.8026C137.017 29.0684 137.821 28.7012 138.786 28.7012C139.871 28.7012 140.714 29.0898 141.337 29.8458C141.96 30.6017 142.262 31.7895 142.242 33.3659H137.439C137.439 33.9706 137.6 34.4458 137.901 34.7913C138.203 35.1369 138.565 35.3097 139.007 35.3097C139.308 35.3097 139.569 35.2233 139.77 35.0505C139.971 34.8777 140.132 34.5969 140.232 34.2083M140.353 32.1134C140.353 31.5087 140.192 31.0551 139.931 30.7528C139.65 30.4504 139.328 30.2776 138.926 30.2776C138.504 30.2776 138.163 30.4504 137.881 30.7745C137.6 31.0984 137.48 31.5519 137.48 32.1134H140.353Z" fill="white"/>
<path d="M145.215 31.2711L143.467 30.9256C143.668 30.1697 143.99 29.6082 144.472 29.2411C144.954 28.8739 145.657 28.7012 146.602 28.7012C147.466 28.7012 148.089 28.8092 148.51 29.0251C148.932 29.2411 149.234 29.5218 149.394 29.8458C149.575 30.1697 149.656 30.7959 149.656 31.7031V34.1003C149.636 34.7913 149.656 35.288 149.716 35.6119C149.776 35.9358 149.897 36.2814 150.058 36.6702H148.149C148.109 36.5406 148.028 36.3247 147.968 36.0655C147.928 35.9358 147.908 35.8711 147.908 35.828C147.586 36.1735 147.224 36.4327 146.863 36.6055C146.481 36.7782 146.099 36.8646 145.657 36.8646C144.914 36.8646 144.331 36.6486 143.889 36.2166C143.467 35.7847 143.246 35.2233 143.246 34.5538C143.246 34.1219 143.347 33.7114 143.548 33.3659C143.748 33.0203 144.01 32.7612 144.371 32.5669C144.733 32.3942 145.235 32.2214 145.898 32.0917C146.803 31.919 147.425 31.7462 147.767 31.595V31.3792C147.767 30.9903 147.687 30.7095 147.486 30.5368C147.305 30.364 146.963 30.2776 146.461 30.2776C146.119 30.2776 145.858 30.3425 145.657 30.4937C145.456 30.6448 145.316 30.8823 145.195 31.2495M147.767 32.9125C147.526 32.9989 147.124 33.1067 146.602 33.2364C146.059 33.3659 145.717 33.4739 145.557 33.6036C145.316 33.7978 145.175 34.0355 145.175 34.3378C145.175 34.6402 145.276 34.8777 145.476 35.0936C145.677 35.3097 145.939 35.4175 146.24 35.4175C146.582 35.4175 146.923 35.288 147.224 35.0505C147.446 34.8561 147.606 34.6402 147.687 34.3594C147.747 34.1866 147.767 33.8411 147.767 33.3444V32.934V32.9125Z" fill="white"/>
<path d="M158.175 36.6917H156.245V32.7179C156.245 31.8757 156.206 31.3357 156.126 31.0766C156.045 30.839 155.905 30.6446 155.723 30.4935C155.543 30.364 155.322 30.2776 155.06 30.2776C154.718 30.2776 154.438 30.364 154.156 30.5799C153.895 30.7743 153.714 31.0335 153.613 31.3574C153.513 31.6813 153.472 32.286 153.472 33.1498V36.6917H151.544V28.8954H153.333V30.0399C153.975 29.1546 154.759 28.7227 155.723 28.7227C156.145 28.7227 156.527 28.809 156.888 28.9602C157.25 29.133 157.512 29.3274 157.692 29.5865C157.874 29.8457 157.993 30.1263 158.074 30.4504C158.154 30.7743 158.175 31.2277 158.175 31.8324V36.6701V36.6917Z" fill="white"/>
<path d="M164.001 25.9157H166.031V31.7467C166.031 32.6753 166.05 33.2584 166.111 33.5392C166.191 33.9711 166.412 34.3381 166.735 34.5973C167.055 34.8564 167.497 35.0077 168.08 35.0077C168.663 35.0077 169.085 34.8781 169.386 34.6189C169.688 34.3598 169.848 34.0575 169.909 33.6903C169.969 33.3231 169.989 32.7184 169.989 31.8546V25.894H172.018V31.5523C172.018 32.8481 171.958 33.7551 171.858 34.295C171.757 34.835 171.557 35.2884 171.254 35.6556C170.953 36.0227 170.571 36.3034 170.069 36.5411C169.588 36.757 168.944 36.865 168.141 36.865C167.177 36.865 166.453 36.757 165.97 36.4978C165.468 36.2603 165.086 35.9578 164.805 35.5692C164.523 35.1805 164.323 34.7917 164.243 34.3814C164.102 33.7551 164.042 32.8481 164.042 31.6387V25.894L164.001 25.9157Z" fill="white"/>
<path d="M180.699 36.6917H178.769V32.7179C178.769 31.8757 178.73 31.3357 178.65 31.0766C178.568 30.839 178.429 30.6446 178.247 30.4935C178.067 30.364 177.846 30.2776 177.584 30.2776C177.242 30.2776 176.962 30.364 176.68 30.5799C176.418 30.7743 176.238 31.0335 176.137 31.3574C176.037 31.6813 175.996 32.286 175.996 33.1498V36.6917H174.068V28.8954H175.855V30.0399C176.499 29.1546 177.283 28.7227 178.247 28.7227C178.669 28.7227 179.051 28.809 179.412 28.9602C179.774 29.133 180.036 29.3274 180.216 29.5865C180.396 29.8457 180.517 30.1263 180.598 30.4504C180.678 30.7743 180.699 31.2277 180.699 31.8324V36.6701V36.6917Z" fill="white"/>
<path d="M182.647 25.9155H184.577V27.816H182.647V25.9155ZM182.647 28.8741H184.577V36.6704H182.647V28.8741Z" fill="white"/>
<path d="M186.104 32.6748C186.104 31.9837 186.265 31.3357 186.566 30.6879C186.887 30.0399 187.329 29.5649 187.892 29.2193C188.474 28.8738 189.118 28.7227 189.822 28.7227C190.927 28.7227 191.81 29.1113 192.513 29.8672C193.217 30.6446 193.559 31.5949 193.559 32.7827C193.559 33.9704 193.197 34.9423 192.493 35.7198C191.789 36.4973 190.886 36.8859 189.822 36.8859C189.157 36.8859 188.515 36.7348 187.911 36.4109C187.309 36.087 186.847 35.6118 186.546 34.9856C186.224 34.3593 186.083 33.6034 186.083 32.6963M188.052 32.8043C188.052 33.5818 188.214 34.1648 188.555 34.5751C188.897 34.9856 189.319 35.2015 189.822 35.2015C190.323 35.2015 190.745 34.9856 191.087 34.5751C191.428 34.1648 191.589 33.5601 191.589 32.7827C191.589 32.0052 191.428 31.4438 191.087 31.0118C190.745 30.6015 190.323 30.3855 189.822 30.3855C189.319 30.3855 188.897 30.6015 188.555 31.0118C188.214 31.4221 188.052 32.0052 188.052 32.7827" fill="white"/>
<path d="M201.696 36.6917H199.767V32.7179C199.767 31.8757 199.726 31.3357 199.646 31.0766C199.566 30.839 199.425 30.6446 199.243 30.4935C199.063 30.364 198.842 30.2776 198.581 30.2776C198.24 30.2776 197.958 30.364 197.677 30.5799C197.415 30.7743 197.235 31.0335 197.135 31.3574C197.034 31.6813 196.994 32.286 196.994 33.1498V36.6917H195.064V28.8954H196.854V30.0399C197.495 29.1546 198.279 28.7227 199.243 28.7227C199.666 28.7227 200.047 28.809 200.409 28.9602C200.771 29.133 201.033 29.3274 201.213 29.5865C201.394 29.8457 201.514 30.1263 201.596 30.4504C201.655 30.7743 201.696 31.2277 201.696 31.8324V36.6701V36.6917Z" fill="white"/>
<path d="M247.632 34.4355C247.049 34.4355 246.889 34.1331 246.889 33.6581V12.0402C246.889 11.5866 247.049 11.2627 247.612 11.2627H254.684C262.218 11.2627 264.228 16.6402 264.228 22.7735C264.228 28.9068 262.32 34.4139 254.684 34.4139H247.652L247.632 34.4355ZM254.322 15.9275H252.012V29.7923H254.081C256.995 29.7923 258.843 27.9782 258.843 23.0327C258.843 18.0872 257.417 15.9275 254.302 15.9275" fill="white"/>
<path d="M272.144 27.0712C272.265 29.7492 273.47 30.3106 275.641 30.3106C276.646 30.3106 278.132 30.1379 279.458 29.9651C280.302 29.8572 280.402 29.8572 280.563 30.7426L280.825 32.3839C280.965 33.183 280.965 33.5286 279.98 33.9605C278.674 34.4572 276.323 34.7595 274.757 34.7595C268.247 34.7595 267.062 30.5698 267.062 25.9698C267.062 22.6224 267.644 16.8994 274.455 16.8994C280.643 16.8994 281.789 21.1107 281.83 24.8468C281.83 26.2723 281.427 27.0712 280.041 27.0712H272.125H272.144ZM272.205 23.9398H276.706C276.706 22.2769 276.163 20.9811 274.475 20.9811C272.948 20.9811 272.305 22.0177 272.205 23.9398Z" fill="white"/>
<path d="M290.147 34.7593C288.6 34.7593 286.35 34.4569 285.045 33.9818C283.979 33.5714 283.739 33.2258 283.939 32.3189L284.3 30.656C284.421 29.9864 284.623 29.9217 285.346 30.0728C286.833 30.3536 288.882 30.5264 289.987 30.5264C291.635 30.5264 292.257 30.1377 292.257 29.2306C292.257 28.2156 291.796 27.9781 290.449 27.8053C286.954 27.287 284.06 26.5742 284.06 22.5142C284.06 18.8213 286.852 16.9424 290.67 16.9424C292.138 16.9424 294.326 17.1799 295.693 17.7199C296.577 18.0438 296.999 18.2813 296.798 19.1452L296.436 20.916C296.276 21.5855 296.176 21.6504 295.472 21.5423C294.005 21.3265 291.876 21.1321 290.871 21.1321C289.224 21.0888 289.023 21.5855 289.023 22.3198C289.023 23.1837 289.866 23.3348 291.031 23.5509C294.367 24.0043 297.32 24.6954 297.32 29.0578C297.32 33.4203 293.845 34.8024 290.147 34.8024" fill="white"/>
<path d="M311.204 32.859C311.345 33.3773 311.044 33.8307 310.621 33.9818C309.075 34.5434 306.925 34.7162 305.879 34.7162C301.802 34.7162 301.078 32.0382 301.078 29.166V21.3914H299.651C299.129 21.3914 298.968 21.1537 298.968 20.6354V18.0223C298.968 17.504 299.129 17.2448 299.651 17.2448H301.118V13.8326C301.118 13.2711 301.399 13.0767 301.821 12.9256L305.097 11.9753C305.558 11.8025 305.901 12.0185 305.901 12.5584V17.2232H309.215C309.798 17.2232 309.898 17.4607 309.898 17.9575V20.6139C309.898 21.1322 309.798 21.3697 309.215 21.3697H305.879L305.92 27.8486C305.92 29.166 306.02 29.7058 307.909 29.7274C308.431 29.7274 309.336 29.6627 310.14 29.5763C310.561 29.5763 310.823 29.5115 310.923 30.3105L311.225 32.8157L311.204 32.859Z" fill="white"/>
<path d="M315.665 15.3008C313.395 15.3008 313.074 13.9402 313.074 12.6876C313.074 11.2623 313.596 10.1177 315.665 10.1177C317.736 10.1177 318.237 11.1975 318.237 12.6876C318.237 14.005 317.855 15.3008 315.665 15.3008ZM318.076 33.6792C318.076 34.0247 317.976 34.4567 317.433 34.4567H313.858C313.314 34.4567 313.154 34.1328 313.154 33.6792V17.9788C313.154 17.4819 313.314 17.2013 313.858 17.2013H317.433C317.976 17.2013 318.076 17.6547 318.076 17.9788V33.6792Z" fill="white"/>
<path d="M335.678 34.4351H332.101C331.579 34.4351 331.397 34.1545 331.397 33.7009C331.397 30.6343 331.438 27.5891 331.438 24.5657C331.438 22.6436 330.855 21.8877 329.449 21.8877C328.403 21.8877 327.058 22.6219 326.274 22.9027V33.7225C326.274 34.0681 326.174 34.4567 325.591 34.4567H322.055C321.512 34.4567 321.352 34.1759 321.352 33.7225V18.022C321.352 17.5686 321.512 17.2445 322.055 17.2445H325.591C326.174 17.2445 326.274 17.6548 326.274 18.022V18.8642C326.274 18.8642 326.334 18.9075 326.375 18.9075C327.801 17.7628 329.911 16.9639 331.479 16.9639C336.079 16.9639 336.382 20.5919 336.382 23.8314V33.7442C336.382 34.0896 336.28 34.4784 335.697 34.4784" fill="white"/>
<path d="M349.2 32.3407C347.512 34.0468 345.021 34.7162 343.394 34.7162C339.596 34.7162 338.853 32.2326 338.853 29.5979C338.793 25.3002 341.263 23.81 345.082 23.81H348.819V23.2486C348.819 21.78 348.355 21.197 345.966 21.197C345.021 21.197 342.972 21.3697 341.706 21.5209C340.801 21.6289 340.641 21.6289 340.48 20.9378L340.119 19.1237C340.017 18.5406 340.138 18.1734 341.163 17.7631C342.63 17.1801 345.242 16.9209 346.748 16.9209C352.857 16.9209 353.702 19.3612 353.702 23.5078V29.0149C353.702 30.4833 353.901 30.5482 354.906 30.6777C355.448 30.7209 355.589 30.8504 355.589 31.2607V33.4852C355.589 34.0035 355.268 34.2412 354.644 34.3923C354.003 34.5651 353.319 34.6298 352.636 34.6298C351.048 34.6298 349.722 34.2195 349.3 32.3621L349.241 32.319L349.2 32.3407ZM348.717 27.1791H345.805C344.599 27.1791 343.856 27.6758 343.856 29.2955C343.856 30.3754 344.217 30.7209 345.322 30.7209C346.327 30.7209 347.814 30.0946 348.738 29.4899V27.1575L348.717 27.1791Z" fill="white"/>
<path d="M368.871 32.859C369.011 33.3773 368.71 33.8307 368.288 33.9818C366.741 34.5434 364.59 34.7162 363.546 34.7162C359.467 34.7162 358.743 32.0382 358.743 29.166V21.3914H357.317C356.795 21.3914 356.635 21.1537 356.635 20.6354V18.0223C356.635 17.504 356.795 17.2448 357.317 17.2448H358.784V13.8326C358.784 13.2711 359.066 13.0767 359.488 12.9256L362.762 11.9753C363.225 11.8025 363.566 12.0185 363.566 12.5584V17.2232H366.882C367.465 17.2232 367.564 17.4607 367.564 17.9575V20.6139C367.564 21.1322 367.465 21.3697 366.882 21.3697H363.546L363.587 27.8486C363.587 29.166 363.687 29.7058 365.576 29.7274C366.098 29.7274 367.001 29.6627 367.805 29.5763C368.227 29.5763 368.489 29.5115 368.589 30.3105L368.89 32.8157L368.871 32.859Z" fill="white"/>
<path d="M373.312 15.3008C371.041 15.3008 370.719 13.9402 370.719 12.6876C370.719 11.2623 371.241 10.1177 373.312 10.1177C375.381 10.1177 375.883 11.1975 375.883 12.6876C375.883 14.005 375.502 15.3008 373.312 15.3008ZM375.723 33.6792C375.723 34.0247 375.621 34.4567 375.079 34.4567H371.503C370.961 34.4567 370.799 34.1328 370.799 33.6792V17.9788C370.799 17.4819 370.961 17.2013 371.503 17.2013H375.079C375.621 17.2013 375.723 17.6547 375.723 17.9788V33.6792Z" fill="white"/>
<path d="M386.251 34.7164C379.278 34.7164 378.816 29.382 378.816 25.5812C378.816 22.4065 379.6 16.8994 386.251 16.8994C392.9 16.8994 393.946 21.5427 393.946 25.5812C393.946 29.382 393.403 34.7164 386.251 34.7164ZM386.31 21.4346C384.321 21.4346 383.819 22.9679 383.819 25.7971C383.819 28.8206 384.302 30.1811 386.251 30.1811C388.42 30.1811 388.883 28.7558 388.883 25.7971C388.883 22.8385 388.5 21.4346 386.331 21.4346" fill="white"/>
<path d="M410.803 34.4351H407.227C406.704 34.4351 406.524 34.1545 406.524 33.7009C406.524 30.6343 406.564 27.5891 406.564 24.5657C406.564 22.6436 405.981 21.8877 404.575 21.8877C403.53 21.8877 402.183 22.6219 401.401 22.9027V33.7225C401.401 34.0681 401.299 34.4567 400.717 34.4567H397.181C396.639 34.4567 396.477 34.1759 396.477 33.7225V18.022C396.477 17.5686 396.639 17.2445 397.181 17.2445H400.717C401.299 17.2445 401.401 17.6548 401.401 18.022V18.8642C401.401 18.8642 401.46 18.9075 401.501 18.9075C402.928 17.7628 405.036 16.9639 406.605 16.9639C411.206 16.9639 411.507 20.5919 411.507 23.8314V33.7442C411.507 34.0896 411.406 34.4784 410.823 34.4784" fill="white"/>
<path d="M424.146 12.0403C424.146 11.5868 424.306 11.2412 424.848 11.2412H437.727C438.149 11.2412 438.411 11.5436 438.411 12.0187V15.1933C438.411 15.6037 438.251 15.9276 437.688 15.9276H429.289V20.1389H436.622C437.085 20.1389 437.367 20.4197 437.367 20.8731V24.0478C437.367 24.4581 437.205 24.7822 436.622 24.7822H429.289V29.7924H437.848C438.31 29.7924 438.552 30.1163 438.552 30.5699V33.7446C438.552 34.1549 438.392 34.4356 437.848 34.4356H424.828C424.286 34.4356 424.125 34.1332 424.125 33.7013V12.0403H424.146Z" fill="white"/>
<path d="M451.331 32.3407C449.644 34.0468 447.151 34.7162 445.524 34.7162C441.726 34.7162 440.983 32.2326 440.983 29.5979C440.922 25.3002 443.394 23.81 447.211 23.81H450.949V23.2486C450.949 21.78 450.487 21.197 448.095 21.197C447.151 21.197 445.102 21.3697 443.836 21.5209C442.933 21.6289 442.772 21.6289 442.61 20.9378L442.248 19.1237C442.148 18.5406 442.27 18.1734 443.294 17.7631C444.761 17.1801 447.372 16.9209 448.879 16.9209C454.988 16.9209 455.831 19.3612 455.831 23.5078V29.0149C455.831 30.4833 456.033 30.5482 457.038 30.6777C457.58 30.7209 457.72 30.8504 457.72 31.2607V33.4852C457.72 34.0035 457.4 34.2412 456.776 34.3923C456.133 34.5651 455.45 34.6298 454.767 34.6298C453.18 34.6298 451.854 34.2195 451.431 32.3621L451.371 32.319L451.331 32.3407ZM450.849 27.1791H447.935C446.73 27.1791 445.987 27.6758 445.987 29.2955C445.987 30.3754 446.347 30.7209 447.454 30.7209C448.457 30.7209 449.945 30.0946 450.868 29.4899V27.1575L450.849 27.1791Z" fill="white"/>
<path d="M464.993 19.6413L465.054 19.7062C466.219 18.4104 468.389 17.2658 469.755 17.0282C470.439 16.9202 470.72 16.9635 470.82 17.8274L471.202 21.2395C471.262 21.8657 471.262 22.0818 470.298 22.2762C468.39 22.6648 466.54 23.1832 464.973 23.7662V33.6358C464.973 33.9813 464.873 34.4133 464.291 34.4133H460.714C460.171 34.4133 460.01 34.1108 460.01 33.6358V17.9569C460.01 17.5033 460.171 17.1794 460.714 17.1794H464.25C464.873 17.1794 464.954 17.6329 464.954 17.9569V19.6198L464.993 19.6413Z" fill="white"/>
<path d="M484.001 32.859C484.142 33.3773 483.841 33.8307 483.418 33.9818C481.852 34.5434 479.722 34.7162 478.678 34.7162C474.599 34.7162 473.875 32.0382 473.875 29.166V21.3914H472.448C471.926 21.3914 471.765 21.1537 471.765 20.6354V18.0223C471.765 17.504 471.926 17.2448 472.448 17.2448H473.914V13.8326C473.914 13.2711 474.196 13.0767 474.638 12.9256L477.913 11.9753C478.375 11.8025 478.717 12.0185 478.717 12.5584V17.2232H482.032C482.615 17.2232 482.716 17.4607 482.716 17.9575V20.6139C482.716 21.1322 482.615 21.3697 482.032 21.3697H478.697L478.737 27.8486C478.737 29.166 478.838 29.7058 480.706 29.7274C481.228 29.7274 482.133 29.6627 482.937 29.5763C483.359 29.5763 483.62 29.5115 483.721 30.3105L484.001 32.8157V32.859Z" fill="white"/>
<path d="M500.517 33.6578C500.517 34.0033 500.417 34.4351 499.835 34.4351H496.258C495.736 34.4351 495.534 34.1112 495.534 33.6578C495.534 32.1676 495.575 25.7751 495.575 24.2849C495.575 22.4061 494.952 21.6719 493.606 21.6719C492.64 21.6719 491.174 22.3413 490.431 22.6869V33.6793C490.431 34.0248 490.331 34.4568 489.748 34.4568H486.171C485.649 34.4568 485.489 34.1328 485.489 33.6793V10.5929C485.489 10.1394 485.649 9.81543 486.171 9.81543H489.768C490.35 9.81543 490.452 10.2258 490.452 10.5929V18.4756C491.778 17.6764 493.667 16.899 495.294 16.899C500.156 16.899 500.517 20.5272 500.517 23.7666V33.6578Z" fill="white"/>
<path d="M500.517 59.2598H0.427734" stroke="white" stroke-width="0.331869" stroke-miterlimit="10" stroke-linecap="round"/>
<path d="M1.54431 84.7124V94.6231H0.427734V84.7124H1.54431ZM3.63899 94.6231V87.1901H4.66553V88.3515H4.75557C4.89963 87.9547 5.13226 87.6466 5.45341 87.4273C5.77458 87.2046 6.16028 87.0933 6.61051 87.0933C7.06674 87.0933 7.44644 87.2046 7.74958 87.4273C8.05574 87.6466 8.29437 87.9547 8.46545 88.3515H8.53748C8.71457 87.9676 8.98021 87.6627 9.33439 87.4369C9.68857 87.2079 10.1133 87.0933 10.6085 87.0933C11.2269 87.0933 11.7326 87.3014 12.1258 87.7176C12.519 88.1306 12.7156 88.7742 12.7156 89.6485V94.6231H11.6531V89.6485C11.6531 89.1001 11.5135 88.708 11.2344 88.4726C10.9552 88.237 10.6265 88.1192 10.2484 88.1192C9.7621 88.1192 9.38542 88.2774 9.11828 88.5935C8.85115 88.9065 8.71759 89.3033 8.71759 89.784V94.6231H7.63703V89.5323C7.63703 89.1097 7.50947 88.7693 7.25433 88.5113C6.9992 88.2499 6.67054 88.1192 6.26833 88.1192C5.99219 88.1192 5.73406 88.1983 5.49395 88.3564C5.25683 88.5146 5.06472 88.7339 4.91765 89.0145C4.77357 89.292 4.70154 89.613 4.70154 89.9776V94.6231H3.63899ZM14.6583 97.4106V87.1901H15.6848V88.3709H15.8109C15.889 88.2419 15.9971 88.0774 16.1351 87.8773C16.2762 87.6741 16.4772 87.4934 16.7384 87.3354C17.0026 87.174 17.3598 87.0933 17.8099 87.0933C18.3922 87.0933 18.9054 87.2498 19.3497 87.5628C19.7939 87.8757 20.1405 88.3193 20.3897 88.8936C20.6388 89.4677 20.7634 90.1453 20.7634 90.9261C20.7634 91.7131 20.6388 92.3956 20.3897 92.973C20.1405 93.5473 19.7954 93.9925 19.3542 94.3086C18.913 94.6216 18.4043 94.778 17.8279 94.778C17.3837 94.778 17.028 94.6989 16.7608 94.5409C16.4937 94.3796 16.2881 94.1974 16.144 93.9942C15.9999 93.7875 15.889 93.6166 15.8109 93.4812H15.7208V97.4106H14.6583ZM15.7028 90.9067C15.7028 91.468 15.7794 91.9632 15.9324 92.3923C16.0856 92.8181 16.3092 93.1521 16.6033 93.394C16.8975 93.6328 17.2576 93.7521 17.6838 93.7521C18.1281 93.7521 18.4987 93.6263 18.7959 93.3747C19.096 93.1197 19.3212 92.7778 19.4712 92.3487C19.6244 91.9165 19.7008 91.4358 19.7008 90.9067C19.7008 90.384 19.6259 89.913 19.4758 89.4936C19.3286 89.0709 19.1051 88.7371 18.8049 88.4919C18.5078 88.2435 18.1341 88.1192 17.6838 88.1192C17.2517 88.1192 16.8884 88.237 16.5943 88.4726C16.3001 88.7049 16.078 89.0306 15.9279 89.45C15.7779 89.8662 15.7028 90.3518 15.7028 90.9067ZM23.4468 84.7124V94.6231H22.3843V84.7124H23.4468ZM28.2923 94.778C27.626 94.778 27.0513 94.62 26.568 94.3038C26.0878 93.9844 25.7171 93.5391 25.456 92.9681C25.1978 92.394 25.0688 91.7261 25.0688 90.9648C25.0688 90.2034 25.1978 89.5323 25.456 88.9517C25.7171 88.3676 26.0802 87.9128 26.5455 87.5869C27.0138 87.258 27.56 87.0933 28.1844 87.0933C28.5445 87.0933 28.9002 87.1579 29.2513 87.2869C29.6025 87.4159 29.9221 87.6256 30.2103 87.916C30.4985 88.2032 30.7281 88.5839 30.8992 89.0581C31.0704 89.5323 31.1559 90.1162 31.1559 90.8099V91.2937H25.8251V90.3065H30.0753C30.0753 89.8871 29.9972 89.513 29.8412 89.1838C29.6881 88.8549 29.469 88.5951 29.1838 88.4047C28.9017 88.2144 28.5685 88.1192 28.1844 88.1192C27.761 88.1192 27.3949 88.2321 27.0858 88.4581C26.7796 88.6807 26.544 88.971 26.379 89.3291C26.2138 89.6872 26.1313 90.0711 26.1313 90.4808V91.139C26.1313 91.7003 26.2213 92.1761 26.4014 92.5666C26.5845 92.9536 26.8382 93.2489 27.1623 93.4521C27.4865 93.6522 27.8632 93.7521 28.2923 93.7521C28.5716 93.7521 28.8236 93.7101 29.0488 93.6263C29.2769 93.5391 29.4735 93.4101 29.6385 93.2391C29.8036 93.0649 29.9312 92.8488 30.0213 92.5907L31.0478 92.9004C30.9397 93.2746 30.7581 93.6037 30.5031 93.8876C30.2479 94.1682 29.9327 94.3877 29.5575 94.5458C29.1823 94.7005 28.7606 94.778 28.2923 94.778ZM32.7721 94.6231V87.1901H33.7986V88.3515H33.8887C34.0328 87.9547 34.2654 87.6466 34.5866 87.4273C34.9078 87.2046 35.2934 87.0933 35.7437 87.0933C36.1999 87.0933 36.5795 87.2046 36.8827 87.4273C37.1889 87.6466 37.4275 87.9547 37.5986 88.3515H37.6707C37.8478 87.9676 38.1134 87.6627 38.4676 87.4369C38.8218 87.2079 39.2465 87.0933 39.7417 87.0933C40.3601 87.0933 40.8657 87.3014 41.259 87.7176C41.6522 88.1306 41.8488 88.7742 41.8488 89.6485V94.6231H40.7863V89.6485C40.7863 89.1001 40.6467 88.708 40.3675 88.4726C40.0884 88.237 39.7598 88.1192 39.3815 88.1192C38.8953 88.1192 38.5186 88.2774 38.2515 88.5935C37.9843 88.9065 37.8508 89.3033 37.8508 89.784V94.6231H36.7703V89.5323C36.7703 89.1097 36.6427 88.7693 36.3875 88.5113C36.1324 88.2499 35.8037 88.1192 35.4015 88.1192C35.1253 88.1192 34.8672 88.1983 34.6272 88.3564C34.39 88.5146 34.1979 88.7339 34.0508 89.0145C33.9067 89.292 33.8346 89.613 33.8346 89.9776V94.6231H32.7721ZM46.691 94.778C46.0247 94.778 45.4498 94.62 44.9667 94.3038C44.4864 93.9844 44.1157 93.5391 43.8545 92.9681C43.5964 92.394 43.4673 91.7261 43.4673 90.9648C43.4673 90.2034 43.5964 89.5323 43.8545 88.9517C44.1157 88.3676 44.4788 87.9128 44.9441 87.5869C45.4123 87.258 45.9585 87.0933 46.5829 87.0933C46.9431 87.0933 47.2988 87.1579 47.65 87.2869C48.0011 87.4159 48.3208 87.6256 48.609 87.916C48.897 88.2032 49.1268 88.5839 49.2978 89.0581C49.4689 89.5323 49.5544 90.1162 49.5544 90.8099V91.2937H44.2237V90.3065H48.4738C48.4738 89.8871 48.3959 89.513 48.2398 89.1838C48.0867 88.8549 47.8676 88.5951 47.5825 88.4047C47.3003 88.2144 46.9672 88.1192 46.5829 88.1192C46.1597 88.1192 45.7936 88.2321 45.4843 88.4581C45.1783 88.6807 44.9426 88.971 44.7775 89.3291C44.6125 89.6872 44.5299 90.0711 44.5299 90.4808V91.139C44.5299 91.7003 44.6199 92.1761 44.8 92.5666C44.9832 92.9536 45.2367 93.2489 45.5609 93.4521C45.8851 93.6522 46.2617 93.7521 46.691 93.7521C46.9701 93.7521 47.2222 93.7101 47.4473 93.6263C47.6756 93.5391 47.872 93.4101 48.0372 93.2391C48.2023 93.0649 48.3299 92.8488 48.4198 92.5907L49.4463 92.9004C49.3384 93.2746 49.1568 93.6037 48.9016 93.8876C48.6465 94.1682 48.3312 94.3877 47.9562 94.5458C47.581 94.7005 47.1593 94.778 46.691 94.778ZM52.2333 90.1517V94.6231H51.1708V87.1901H52.1973V88.3515H52.2873C52.4494 87.9741 52.6955 87.6709 53.0257 87.4418C53.3559 87.2095 53.7822 87.0933 54.3044 87.0933C54.7727 87.0933 55.1822 87.1966 55.5335 87.4031C55.8847 87.6063 56.1577 87.916 56.3528 88.3322C56.5479 88.7451 56.6456 89.2678 56.6456 89.9002V94.6231H55.583V89.9776C55.583 89.3935 55.442 88.9387 55.1598 88.6128C54.8777 88.2839 54.4905 88.1192 53.9981 88.1192C53.659 88.1192 53.3559 88.1983 53.0888 88.3564C52.8247 88.5146 52.6159 88.7451 52.4629 89.0483C52.3099 89.3517 52.2333 89.7194 52.2333 90.1517ZM61.5947 87.1901V88.1579H58.0108V87.1901H61.5947ZM59.0554 85.4094H60.1179V92.4939C60.1179 92.8165 60.1615 93.0586 60.2485 93.2198C60.3386 93.3779 60.4526 93.4843 60.5906 93.5391C60.7317 93.5909 60.8803 93.6166 61.0364 93.6166C61.1535 93.6166 61.2495 93.6102 61.3246 93.5972C61.3996 93.5811 61.4596 93.5682 61.5047 93.5585L61.7208 94.5845C61.6488 94.6135 61.5481 94.6425 61.4192 94.6716C61.29 94.7038 61.1264 94.7199 60.9283 94.7199C60.6281 94.7199 60.3341 94.6506 60.0459 94.5118C59.7607 94.3732 59.5237 94.1619 59.3345 93.878C59.1485 93.5941 59.0554 93.2359 59.0554 92.8036V85.4094ZM66.0182 94.778C65.3518 94.778 64.7771 94.62 64.2938 94.3038C63.8135 93.9844 63.4428 93.5391 63.1817 92.9681C62.9237 92.394 62.7946 91.7261 62.7946 90.9648C62.7946 90.2034 62.9237 89.5323 63.1817 88.9517C63.4428 88.3676 63.8061 87.9128 64.2714 87.5869C64.7395 87.258 65.2858 87.0933 65.9101 87.0933C66.2704 87.0933 66.6259 87.1579 66.9772 87.2869C67.3284 87.4159 67.648 87.6256 67.9361 87.916C68.2243 88.2032 68.4539 88.5839 68.6251 89.0581C68.7961 89.5323 68.8816 90.1162 68.8816 90.8099V91.2937H63.5509V90.3065H67.8011C67.8011 89.8871 67.7231 89.513 67.5669 89.1838C67.4139 88.8549 67.1947 88.5951 66.9096 88.4047C66.6274 88.2144 66.2943 88.1192 65.9101 88.1192C65.4869 88.1192 65.1208 88.2321 64.8116 88.4581C64.5054 88.6807 64.2699 88.971 64.1047 89.3291C63.9396 89.6872 63.8571 90.0711 63.8571 90.4808V91.139C63.8571 91.7003 63.9472 92.1761 64.1273 92.5666C64.3103 92.9536 64.5639 93.2489 64.8882 93.4521C65.2122 93.6522 65.589 93.7521 66.0182 93.7521C66.2973 93.7521 66.5495 93.7101 66.7746 93.6263C67.0027 93.5391 67.1993 93.4101 67.3644 93.2391C67.5294 93.0649 67.657 92.8488 67.747 92.5907L68.7736 92.9004C68.6655 93.2746 68.484 93.6037 68.2288 93.8876C67.9736 94.1682 67.6585 94.3877 67.2833 94.5458C66.9082 94.7005 66.4864 94.778 66.0182 94.778ZM73.1093 94.778C72.533 94.778 72.0243 94.6216 71.5829 94.3086C71.1417 93.9925 70.7966 93.5473 70.5475 92.973C70.2984 92.3956 70.1738 91.7131 70.1738 90.9261C70.1738 90.1453 70.2984 89.4677 70.5475 88.8936C70.7966 88.3193 71.1432 87.8757 71.5875 87.5628C72.0317 87.2498 72.545 87.0933 73.1273 87.0933C73.5776 87.0933 73.9333 87.174 74.1944 87.3354C74.4585 87.4934 74.6596 87.6741 74.7977 87.8773C74.9387 88.0774 75.0483 88.2419 75.1263 88.3709H75.2163V84.7124H76.2789V94.6231H75.2523V93.4812H75.1263C75.0483 93.6166 74.9372 93.7875 74.7931 93.9942C74.649 94.1974 74.4435 94.3796 74.1763 94.5409C73.9092 94.6989 73.5535 94.778 73.1093 94.778ZM73.2533 93.7521C73.6796 93.7521 74.0398 93.6328 74.3339 93.394C74.628 93.1521 74.8517 92.8181 75.0047 92.3923C75.1579 91.9632 75.2343 91.468 75.2343 90.9067C75.2343 90.3518 75.1593 89.8662 75.0093 89.45C74.8591 89.0306 74.6371 88.7049 74.343 88.4726C74.0487 88.237 73.6856 88.1192 73.2533 88.1192C72.8032 88.1192 72.428 88.2435 72.1278 88.4919C71.8306 88.7371 71.607 89.0709 71.457 89.4936C71.3099 89.913 71.2363 90.384 71.2363 90.9067C71.2363 91.4358 71.3114 91.9165 71.4614 92.3487C71.6146 92.7778 71.8396 93.1197 72.1368 93.3747C72.4369 93.6263 72.8091 93.7521 73.2533 93.7521ZM82.0823 94.6231V84.7124H83.1448V88.3709H83.2349C83.313 88.2419 83.4211 88.0774 83.5591 87.8773C83.7002 87.6741 83.9013 87.4934 84.1624 87.3354C84.4266 87.174 84.7838 87.0933 85.2339 87.0933C85.8162 87.0933 86.3294 87.2498 86.7737 87.5628C87.2179 87.8757 87.5647 88.3193 87.8138 88.8936C88.0628 89.4677 88.1874 90.1453 88.1874 90.9261C88.1874 91.7131 88.0628 92.3956 87.8138 92.973C87.5647 93.5473 87.2194 93.9925 86.7782 94.3086C86.337 94.6216 85.8283 94.778 85.2519 94.778C84.8077 94.778 84.452 94.6989 84.185 94.5409C83.9178 94.3796 83.7121 94.1974 83.568 93.9942C83.4241 93.7875 83.313 93.6166 83.2349 93.4812H83.1088V94.6231H82.0823ZM83.1268 90.9067C83.1268 91.468 83.2034 91.9632 83.3564 92.3923C83.5096 92.8181 83.7332 93.1521 84.0273 93.394C84.3215 93.6328 84.6817 93.7521 85.1078 93.7521C85.5521 93.7521 85.9227 93.6263 86.22 93.3747C86.5202 93.1197 86.7452 92.7778 86.8952 92.3487C87.0484 91.9165 87.1248 91.4358 87.1248 90.9067C87.1248 90.384 87.0499 89.913 86.8998 89.4936C86.7528 89.0709 86.5291 88.7371 86.2289 88.4919C85.9318 88.2435 85.5581 88.1192 85.1078 88.1192C84.6757 88.1192 84.3124 88.237 84.0183 88.4726C83.7242 88.7049 83.5021 89.0306 83.3521 89.45C83.2019 89.8662 83.1268 90.3518 83.1268 90.9067ZM90.2495 97.4106C90.0694 97.4106 89.9088 97.3945 89.7677 97.3623C89.6267 97.3331 89.5292 97.3042 89.4752 97.2751L89.7452 96.2685C90.0034 96.3395 90.2315 96.3653 90.4296 96.346C90.6278 96.3266 90.8033 96.2314 90.9564 96.0604C91.1124 95.8927 91.255 95.6201 91.3841 95.2426L91.5822 94.6618L89.0249 87.1901H90.1775L92.0864 93.1134H92.1585L94.0674 87.1901H95.22L92.2845 95.7072C92.1524 96.091 91.9889 96.4089 91.7938 96.6604C91.5987 96.9154 91.3721 97.1041 91.1139 97.2267C90.8589 97.3492 90.5707 97.4106 90.2495 97.4106Z" fill="white"/>
<path d="M195.847 89.5402C194.482 89.2594 192.673 89.1299 192.09 88.2228C191.206 86.8839 192.311 84.9402 195.184 85.113C197.777 85.2858 198.138 87.4453 198.178 88.266H201.936C201.995 86.6894 201.373 85.0481 200.469 84.0115C199.304 82.6942 196.57 81.3336 193.175 81.8951C191.347 82.1759 188.916 83.2989 188.091 85.8689C187.389 88.266 188.091 90.4472 189.458 91.5918C191.186 93.0171 194.421 93.4274 195.747 93.7299C197.354 94.0754 198.54 94.3129 198.338 96.1487C198.138 98.0707 195.344 98.6323 193.516 97.9843C192.211 97.5309 191.648 96.4079 191.386 94.8745H187.428C187.428 96.8182 188.494 98.8482 189.579 99.7768C191.186 101.159 193.015 101.656 195.123 101.656C197.896 101.656 200.188 100.878 201.574 98.6754C202.298 97.5092 203.101 94.8529 201.835 92.4557C200.71 90.3824 198.178 89.9505 195.847 89.5186" fill="white"/>
<path d="M182.766 84.4651C181.159 82.4782 178.327 81.3553 175.474 81.852C170.088 82.7806 168.763 88.2661 168.522 90.0369C168.059 93.3627 168.984 98.9129 174.408 101.116C176.941 102.153 180.134 101.764 182.567 99.8632C183.932 98.7618 185.299 96.3215 185.399 94.7882H180.879C180.738 95.436 180.376 96.3215 179.553 96.9693C177.725 98.3731 175.654 97.466 174.731 96.7534C173.364 95.6735 172.861 93.8594 172.861 91.3111C172.861 87.7694 174.389 85.6528 177.001 85.6528C179.371 85.6528 180.838 87.8558 180.717 89.6697H174.328V93.1036H185.379C185.641 89.8641 184.254 86.3439 182.747 84.4867" fill="white"/>
<path d="M220.22 96.3859V90.4902C220.22 89.6048 220.119 87.4452 219.858 86.0197C219.677 84.9832 218.853 83.4283 217.266 82.586C215.879 81.8517 214.835 81.7222 212.584 81.7222C209.209 81.7222 205.593 82.9747 205.431 88.201H209.49C209.49 86.3005 210.716 85.1991 212.584 85.1991C214.453 85.1991 215.959 86.2574 215.598 87.9849C215.236 89.7127 212.263 89.7776 210.354 90.0582C208.143 90.3821 205.19 91.4837 204.467 94.8095C204.206 96.1053 204.427 98.5239 206.295 100.101C207.56 101.137 208.907 101.569 210.716 101.569C213.006 101.569 214.935 100.489 216 99.4526C216.04 99.7334 216.301 100.748 216.503 101.029H220.762C220.099 99.6039 220.199 97.4226 220.199 96.3859M215.638 95.6733C215.277 96.8178 214.272 97.6386 212.383 97.9192C209.891 98.2648 208.204 96.602 209.269 94.4856C210.354 92.3475 214.312 93.1034 215.819 91.5484C215.819 91.9804 215.879 94.8526 215.619 95.6948" fill="white"/>
<path d="M153.834 102.109C146.64 99.4314 145.314 92.2831 147.103 87.2943C148.891 82.2841 155.16 79.9516 159.499 83.2991C163.86 86.6465 163.377 93.0821 163.377 93.0821H152.227V89.6484H158.696C158.696 89.6484 158.877 88.3093 157.792 87.0352C156.365 85.3291 154.296 85.3507 152.95 86.1929C151.282 87.2296 150.136 90.9009 151.02 94.1403C151.925 97.3797 154.657 98.6539 157.27 98.6539C161.087 98.6539 163.921 95.8248 163.921 91.1817C163.921 83.5149 159.118 76.4962 151.884 74.5309C143.345 72.1985 134.666 77.7703 132.495 86.9488C130.325 96.1272 135.489 105.478 144.049 107.789C150.156 109.452 156.325 107.098 160.143 102.282C158.334 102.865 156.185 102.995 153.793 102.109M139.668 93.3197C138.663 93.3197 137.84 92.4342 137.84 91.3545C137.84 90.2746 138.644 89.3892 139.668 89.3892C140.693 89.3892 141.497 90.2529 141.497 91.3545C141.497 92.4559 140.693 93.3197 139.668 93.3197Z" fill="white"/>
</g>
<defs>
<clipPath id="clip0_138_109">
<rect width="501" height="109" fill="white"/>
</clipPath>
</defs>
</svg>
